<svg role="img" viewBox="0 0 24 24" xmlns="http://www.w3.org/2000/svg"><title>Turkcell</title><path d="M22.12 5.613a12 12.01 0 0 0-3.24-3.402A12.3 12.31 0 0 0 14.551.32a12 12.01 0 0 0-7.739.767 11.7 11.71 0 0 0-3.65 2.512A11.9 11.91 0 0 0 .322 8.12l-.019.047-.058.18c-.592 1.95-.038 3.022.833 2.122.034-.04.069-.077.1-.116l.039-.046a13.2 13.21 0 0 1 2.65-2.312q.619-.429 1.29-.804a10.2 10.21 0 0 1 1.54-.75 1.16 1.161 0 0 0 .585-.844l.007-.035v-.018a2.51 2.512 0 0 1 2.28-2.071 2.62 2.622 0 0 1 1.46.229 2.62 2.622 0 0 1 1.5 1.981 2.65 2.652 0 0 1-.438 1.891 1 1.001 0 0 1-.067.09l-.021.028a2.6 2.602 0 0 1-1.22.861 2.83 2.832 0 0 1-.891.172 1.66 1.661 0 0 1-.58-.049 2.17 2.172 0 0 1-.619-.221 3.13 3.132 0 0 1-.66-.393.512.512 0 0 0-.23-.123.743.747 0 0 0-.418.046.713.714 0 0 0-.132.077q-.582.477-1.11 1a20.2 20.21 0 0 0-2.05 2.573q-.288.453-.546.934-.238.444-.443.899a15.8 15.81 0 0 0-.6 1.541l-.025.076-.033.105c-.01.034-.02.068-.031.1-1.11 3.763.892 5.934 2.57 3.662.092-.144.186-.286.282-.428a17.7 17.71 0 0 1 5.379-5.174q.332-.207.67-.4l.044-.023a17.9 17.91 0 0 1 1.91-.935 10.9 10.91 0 0 1 1.72-.618 1.15 1.151 0 0 0 .763-.889 2.5 2.502 0 0 1 1.37-1.701 2.74 2.742 0 0 1 .635-.228 2.71 2.712 0 0 1 .7-.06 1.25 1.251 0 0 1 .38.046 2.62 2.622 0 0 1-.147 5.174 2.58 2.582 0 0 1-1.92-.48 1.58 1.581 0 0 0-1.27-.012 14.7 14.71 0 0 0-1.56.974 17.7 17.71 0 0 0-1.96 1.681 14.6 14.61 0 0 0-1.7 2.081l-.078.121-.02.032a15.4 15.41 0 0 0-1.49 3.042c-.034.1-.068.191-.1.289-.476 1.58.552 2.212 1.74 2.442a9.679 9.717 0 0 0 2.27.08c.077-.007.147-.013.208-.02.338-.041.678-.076 1.01-.133a12 12.01 0 0 0 6.11-2.892 11.6 11.61 0 0 0 3.93-7.265 11.5 11.51 0 0 0-1.75-8.096z"/></svg>